<svg x="0px" y="0px" height="20px" width="20px" viewBox="0 0 1000 1000"><g><path fill="#293734" d="M768.8,908.9l-91.4-132.4H86.4c-42.2,0-76.4-34.2-76.4-76.4V167.5c0-42.2,34.2-76.4,76.4-76.4h827.2c42,0,76.4,34.2,76.4,76.4v532.9c0,42.2-34.2,76.4-76.4,76.4h-49.1L768.8,908.9z M86.4,143.6c-13.1,0-23.9,10.7-23.9,23.9v532.9c0,13.1,10.7,23.9,23.9,23.9H705l64.8,93.9l67.9-93.9h75.9c13.1,0,23.9-10.7,23.9-23.9V167.5c0-13.1-10.7-23.9-23.9-23.9H86.4z"></path><text fill="#005555" x="500" y="600" text-anchor="middle" style="font-size: 500px; fill: rgb(0, 0, 0);">1</text></g></svg>
