<svg viewBox="0 0 304.25137 304.41785"><g transform="translate(0,-233.58215)"><path fill="#325FBC" d="m 129.86158,536.85316 c -27.56058,-1.1618 -57.287878,-5.06248 -67.213648,-8.81945 l -2.10618,-0.7972 0.39564,-4.9447 c 0.80631,-10.07744 5.6016,-27.87014 10.65865,-39.54853 1.50335,-3.47172 3.08853,-8.18228 3.52262,-10.4679 1.23037,-6.4782 1.00274,-46.15938 -0.35654,-62.15351 -1.83089,-21.54344 -5.67176,-52.06876 -6.97724,-55.45158 -0.4513,-1.16944 -2.80279,2.47479 -5.29412,8.20457 -2.12029,4.87647 -5.33609,11.03374 -5.76266,11.03374 -0.14435,0 -2.16196,-0.39247 -4.48359,-0.87216 -17.46333,-3.60821 -35.73563,-12.30217 -47.4064521,-22.556 l -4.17549003,-3.66853 1.25988003,-3.28517 c 0.692934,-1.80685 1.955794,-6.34067 2.806356,-10.07516 4.782395,-20.99768 12.5247961,-37.43518 26.4949161,-56.24997 7.74134,-10.42595 15.42071,-14.48436 40.19459,-21.24208 8.8195,-2.40576 32.923568,-14.20951 34.677588,-16.9816 0.24445,-0.38634 1.67912,-1.62627 3.18814,-2.7554 l 2.74369,-2.05296 5.17722,1.63699 c 25.34716,8.01449 39.90783,8.52222 63.70092,2.22122 3.55989,-0.94275 7.54063,-2.10434 8.84607,-2.5813 l 2.37352,-0.8672 4.47654,3.09515 c 14.28248,9.87512 26.09571,15.39584 42.67923,19.94545 10.76474,2.95325 20.1122,6.85641 25.84661,10.79262 3.25222,2.23238 4.96291,4.14332 10.30173,11.50761 12.33052,17.00854 20.30337,34.13084 24.17623,51.92034 0.87043,3.9982 2.25906,8.97143 3.08584,11.05163 l 1.50325,3.78218 -5.23753,4.52712 c -11.34474,9.80597 -26.77511,17.25595 -44.07584,21.28039 -3.34917,0.77908 -6.39669,1.41883 -6.77225,1.42167 -0.6317,0.005 -3.32487,-4.94802 -5.2278,-9.61399 -1.19811,-2.93778 -4.82162,-9.48931 -5.44197,-9.83941 -1.56784,-0.88481 -6.42284,39.41269 -8.20703,68.12015 -0.83727,13.47156 -0.42163,46.83557 0.63979,51.35699 0.38455,1.63807 1.78364,5.45744 3.1091,8.48748 5.65493,12.92733 10.52866,31.62319 10.53828,40.42536 l 0.006,4.92708 -4.18268,1.09822 c -13.48363,3.54029 -31.87381,6.09342 -53.44538,7.41986 -13.49389,0.82975 -42.78316,1.12662 -56.03539,0.56798 z m 34.97641,-273.39517 c 5.46902,-1.82512 10.43551,-4.94264 14.7083,-9.23258 4.44963,-4.46749 8.8053,-10.69997 7.16043,-10.24578 -19.40384,5.35787 -38.46381,6.21032 -57.04657,2.55136 -3.15414,-0.62105 -7.26711,-1.61058 -9.13993,-2.19896 -1.87282,-0.58837 -3.40513,-0.93711 -3.40513,-0.77496 0,0.16215 1.26332,2.07809 2.80738,4.25763 5.38949,7.60764 13.92894,13.90343 22.08617,16.28326 6.38659,1.86325 16.14833,1.5896 22.82935,-0.63997 z"></path><g transform="translate(-90.154518,136.40261)"><path fill="white" d="m 242.12086,166.2642 0.15934,-37.11512 4.3376,-0.36748 c 8.07442,-0.68406 16.07305,-4.27431 22.11671,-9.92726 2.54147,-2.37718 9.33507,-10.96729 8.95099,-11.318 -0.0774,-0.0707 -2.55478,0.47788 -5.5052,1.21911 -7.17106,1.80159 -15.45499,3.02908 -23.54862,3.48939 l -6.66131,0.37885 0,-3.13652 0,-3.13652 5.11217,-0.38701 c 8.85517,-0.67037 25.08258,-4.09135 32.82392,-6.919769 l 2.37352,-0.867204 4.47654,3.095153 c 14.28248,9.87512 26.09571,15.39584 42.67923,19.94545 10.76474,2.95325 20.1122,6.85641 25.84661,10.79262 3.25222,2.23238 4.96291,4.14332 10.30173,11.50761 12.33052,17.00854 20.30337,34.13084 24.17623,51.92034 0.87043,3.9982 2.25906,8.97143 3.08584,11.05163 l 1.50325,3.78218 -5.23753,4.52712 c -11.34474,9.80597 -26.77511,17.25595 -44.07584,21.28039 -3.34917,0.77908 -6.39669,1.41883 -6.77225,1.42167 -0.6317,0.005 -3.32487,-4.94802 -5.2278,-9.61399 -1.19811,-2.93778 -4.82162,-9.48931 -5.44197,-9.83941 -1.56784,-0.88481 -6.42284,39.41269 -8.20703,68.12015 -0.83727,13.47156 -0.42163,46.83557 0.63979,51.35699 0.38455,1.63807 1.78364,5.45744 3.1091,8.48748 5.65493,12.92733 10.52866,31.62319 10.53828,40.42536 l 0.006,4.92708 -4.18268,1.09822 c -18.03617,4.73562 -40.72908,7.235 -75.5981,8.32632 l -11.92839,0.37333 c -1.66421,-79.3095 -0.32426,-167.2855 0.14987,-234.89816 z"></path></g></g></svg>
