<svg xmlns:dc="http://purl.org/dc/elements/1.1/" xmlns:cc="http://creativecommons.org/ns#" xmlns:rdf="http://www.w3.org/1999/02/22-rdf-syntax-ns#" xmlns:svg="http://www.w3.org/2000/svg" xmlns="http://www.w3.org/2000/svg" xmlns:xlink="http://www.w3.org/1999/xlink" viewBox="0 0 60 60" height="28" width="28" version="1.1" id="svg5480">
  <metadata id="metadata5486">
    <rdf:rdf>
      <cc:work rdf:about="">
        <dc:format>image/svg+xml</dc:format>
        <dc:type rdf:resource="http://purl.org/dc/dcmitype/StillImage"></dc:type>
        <dc:title></dc:title>
      </cc:work>
    </rdf:rdf>
  </metadata>
  <defs id="defs5484"></defs>
  <path id="path6030" d="M 27.66,59.916535 C 23.793517,59.569195 20.36883,58.607126 16.86,56.882581 13.667272,55.313395 11.213455,53.549546 8.7336151,51.041182 4.1028077,46.357108 1.2385769,40.59037 0.27951344,34.02 0.02217616,32.257028 -0.01187634,27.959843 0.21865426,26.34 0.92713328,21.361811 2.4507877,17.293477 5.0948464,13.32 9.7248335,6.3620808 17.217258,1.5896988 25.567854,0.27949312 27.442172,-0.01458682 32.573005,-0.01503736 34.488685,0.27870978 37.413988,0.72727087 40.508588,1.7084968 43.26,3.0598895 52.067202,7.3856646 58.198205,15.766462 59.72004,25.56 c 0.304117,1.9571 0.303716,6.929165 -7.2e-4,8.875722 -1.114868,7.128541 -4.748945,13.65089 -10.219325,18.341387 -3.290193,2.821129 -7.573806,5.086598 -11.630142,6.150823 -3.179399,0.83415 -7.390353,1.24189 -10.209858,0.988603 z M 22.004716,56.07 C 21.960793,55.8885 21.878765,55.614985 21.822428,55.462188 21.56535,54.764927 21.623484,54.693794 23.73,53.128096 c 2.405756,-1.788113 5.535065,-4.036642 6.000424,-4.311537 l 0.334911,-0.197837 1.571215,1.100639 c 1.753522,1.228345 5.9138,4.255505 6.450939,4.693923 l 0.34749,0.283622 -0.202577,0.80646 c -0.111416,0.443554 -0.169871,0.839166 -0.129896,0.879139 0.225104,0.225106 4.158712,-1.466953 6.103586,-2.625485 C 46.841494,52.187154 49.893128,49.546505 51.621845,47.34 52.4269,46.312441 53.76,44.396593 53.76,44.267178 c 0,-0.05205 -0.279696,-0.110958 -0.621547,-0.130907 L 52.516904,44.1 50.921408,39.24 c -0.877522,-2.673 -1.596825,-4.87083 -1.598451,-4.884067 -0.0084,-0.06824 2.917265,-2.272819 5.457043,-4.112064 1.584,-1.147093 2.900012,-2.100742 2.924472,-2.119218 0.08028,-0.06065 -0.353881,-2.836903 -0.652164,-4.170265 -0.483576,-2.16164 -1.340351,-4.546373 -2.347801,-6.534833 -0.512854,-1.012246 -0.995783,-1.916746 -1.073177,-2.01 C 53.513992,15.268169 52.610768,15.24 48.194735,15.24 l -5.295879,0 -1.592815,-4.86156 C 40.093422,6.6773063 39.741149,5.4647047 39.830208,5.2982968 39.894548,5.1780763 40.138703,4.9492786 40.372775,4.7898571 40.606847,4.6304357 40.798729,4.4683224 40.79918,4.4296054 40.80056,4.3106048 37.5749,3.2654498 36.221485,2.9463764 34.125889,2.4523307 32.940845,2.3659387 29.18252,2.4332231 26.020801,2.4898265 25.63233,2.5202432 24.42,2.8061219 22.834909,3.179901 20.997607,3.7303655 21.006193,3.8289148 c 0.0034,0.039097 0.212979,0.2364381 0.465714,0.438536 l 0.45952,0.3674509 -1.629633,5.0037929 -1.629632,5.0037934 -5.220157,-0.03125 L 8.2318487,14.58 8.0548562,14.01 C 7.9575103,13.6965 7.8468444,13.44039 7.8089318,13.440866 7.6563761,13.442786 6.0145933,16.108272 5.3318939,17.462417 4.0226783,20.059267 3.0039023,23.25727 2.5802507,26.1 c -0.3117409,2.091802 -0.4101934,1.868582 1.4025599,3.18 2.832407,2.049076 6.2724714,4.640035 6.4981194,4.894201 0.216562,0.243931 0.19594,0.325527 -1.0431437,4.127325 -0.6952403,2.13316 -1.403671,4.321324 -1.5742905,4.862586 L 7.5532787,44.148223 6.891445,44.184112 6.2296114,44.22 7.064574,45.449813 c 1.008283,1.485096 1.389072,1.974091 2.4516022,3.148257 2.2475048,2.483644 5.4857388,4.886591 8.6038238,6.384509 1.319126,0.633705 3.343856,1.40893 3.692286,1.413696 0.236885,0.0032 0.261904,-0.03918 0.19243,-0.326275 z m 5.729281,-19.706519 c -1.763181,-1.261979 -5.80105,-4.220409 -6.002724,-4.398023 -0.09363,-0.08246 0.621023,-2.534896 1.831602,-6.285458 l 1.220081,-3.78 5.243596,-0.03126 5.243597,-0.03126 0.289912,0.931257 c 0.159451,0.512192 0.863666,2.706723 1.564925,4.876736 C 37.826244,29.81549 38.4,31.660178 38.4,31.744786 38.4,31.958722 30.288658,37.92 29.99756,37.92 c -0.04888,0 -1.06748,-0.700433 -2.263563,-1.556519 z" style="fill:#000000"></path>
</svg>
