<svg xmlns:dc="http://purl.org/dc/elements/1.1/" xmlns:cc="http://creativecommons.org/ns#" xmlns:rdf="http://www.w3.org/1999/02/22-rdf-syntax-ns#" xmlns:svg="http://www.w3.org/2000/svg" xmlns="http://www.w3.org/2000/svg" xmlns:xlink="http://www.w3.org/1999/xlink" viewBox="0 0 50 40" height="28" width="34.4" version="1.1" id="svg4190">
  <defs id="defs4194"></defs>
  <path id="path4200" d="m 23.988228,39.86786 c -1.96333,-0.73369 -3.115837,-3.18414 -2.539061,-5.39853 0.333515,-1.28045 1.14011,-2.35287 2.138379,-2.84311 0.749266,-0.36796 2.001418,-0.39433 2.73363,-0.0576 1.49567,0.68791 2.378824,2.22677 2.378824,4.14503 0,1.77808 -0.77791,3.15266 -2.232075,3.94412 -0.418182,0.2276 -0.666642,0.28664 -1.316686,0.31289 -0.504963,0.0204 -0.935012,-0.0176 -1.163011,-0.10285 z M 35.3,27.51359 c -1.270728,-1.29377 -1.880899,-1.83258 -2.654515,-2.34405 -4.718133,-3.11936 -10.132708,-3.35825 -15.000147,-0.66178 -1.254919,0.6952 -2.200399,1.42458 -3.467019,2.67459 -0.589424,0.58169 -1.088768,1.03738 -1.109652,1.01264 C 12.533948,27.56148 11.8,26.55417 11.8,26.45379 c 0,-0.0732 0.557486,-0.66877 1.238857,-1.32348 2.475963,-2.37905 4.771642,-3.69732 7.916868,-4.54617 1.184926,-0.3198 1.213062,-0.32236 3.594275,-0.32823 2.20703,-0.005 2.476384,0.0132 3.35,0.23226 2.994257,0.75067 5.39013,1.99102 7.597461,3.93324 0.889093,0.78231 2.496789,2.50423 2.718637,2.9118 0.114073,0.20957 -0.119959,0.59736 -0.837971,1.38854 L 36.95,29.19351 35.3,27.51359 Z m 6.650779,-6.31906 c -4.088256,-4.78017 -9.105097,-7.68134 -14.611388,-8.44956 -1.637548,-0.22847 -4.813834,-0.15693 -6.410009,0.14437 -2.86719,0.54121 -5.780555,1.74348 -8.286374,3.41956 -1.233949,0.82536 -2.249673,1.68332 -3.8280824,3.23349 L 7.2798511,21.05 6.7589489,20.4707 C 6.4724527,20.15209 6.1608855,19.76078 6.0665773,19.60113 L 5.8951078,19.31086 7.1725539,17.98997 C 7.8751493,17.26348 8.9,16.28955 9.45,15.82568 c 2.765571,-2.33247 6.264584,-4.16568 9.585101,-5.02184 2.25501,-0.58143 2.80566,-0.64528 5.564899,-0.64528 2.71448,0 3.308605,0.0658 5.437612,0.60241 4.088032,1.03033 7.863825,3.15169 11.101382,6.23711 C 42.16345,17.9744 44.1,20.17856 44.1,20.36828 c 0,0.13486 -1.093356,1.55401 -1.291695,1.67659 -0.04687,0.029 -0.432761,-0.35368 -0.857526,-0.85034 z m 6.0442,-6.86953 C 45.954237,11.77836 43.004448,9.10946 40.2,7.27227 32.579268,2.27994 23.543827,1.15197 15.2361,4.15581 10.458706,5.88318 6.2217884,8.79485 2.3859902,12.98661 L 1.4374089,14.02322 0.72966283,13.13787 C 0.08051306,12.32582 0.03348094,12.23601 0.16159255,12.0531 0.48047148,11.59784 2.727295,9.29301 3.7496437,8.37242 10.058099,2.69186 17.760454,-0.25333 25.55,0.03649 32.358177,0.2898 38.363351,2.62476 44.2,7.28806 c 1.922338,1.53589 5.901028,5.7518 5.723426,6.06467 C 49.77882,13.60748 48.658003,15 48.597569,15 c -0.03392,0 -0.30509,-0.30375 -0.60259,-0.675 z" style="fill:#000000"></path>
</svg>
