<svg xmlns:dc="http://purl.org/dc/elements/1.1/" xmlns:cc="http://creativecommons.org/ns#" xmlns:rdf="http://www.w3.org/1999/02/22-rdf-syntax-ns#" xmlns:svg="http://www.w3.org/2000/svg" xmlns="http://www.w3.org/2000/svg" xmlns:sodipodi="http://sodipodi.sourceforge.net/DTD/sodipodi-0.dtd" xmlns:inkscape="http://www.inkscape.org/namespaces/inkscape" id="svg4190" version="1.1" inkscape:version="0.91 r13725" width="28" height="28" viewBox="0 0 60 60" sodipodi:docname="tournaments.svg">
  <defs id="defs4194"></defs>
  <sodipodi:namedview pagecolor="#ffffff" bordercolor="#666666" borderopacity="1" objecttolerance="10" gridtolerance="10" guidetolerance="10" inkscape:pageopacity="0" inkscape:pageshadow="2" inkscape:window-width="1855" inkscape:window-height="1056" id="namedview4192" showgrid="false" fit-margin-top="0" fit-margin-left="0" fit-margin-right="0" fit-margin-bottom="0" inkscape:zoom="2.0242291" inkscape:cx="200" inkscape:cy="188.47298" inkscape:window-x="65" inkscape:window-y="24" inkscape:window-maximized="1" inkscape:current-layer="svg4190"></sodipodi:namedview>
  <g id="g4202" transform="matrix(0.1503677,0,0,0.1319028,-0.07189769,-12.545977)">
    <path inkscape:connector-curvature="0" id="path4200" d="m 57.036475,549.11385 c -1.435968,-0.40033 -2.749994,-1.71436 -3.15032,-3.15032 -0.377737,-1.35494 -0.735836,-13.35365 -0.786475,-26.66384 L 53,495.09937 28.533881,494.79969 C 6.622426,494.5313 3.8814961,494.31355 2.2838813,492.71436 0.5842163,491.01303 0.5,481.70262 0.5,295.50017 0.5,109.22213 0.14619629,99.389019 2.2857143,98.285809 4.8611684,96.957815 20.600396,99.655313 200,96.5 c 186.73306,-3.284295 196.01212,0.08355 197.71429,1.785807 1.7021,1.702191 1.78571,10.936323 1.78571,197.214363 0,186.20245 -0.0842,195.51285 -1.78388,197.21419 -1.59762,1.59919 -4.33854,1.81694 -26.25,2.08533 L 347,495.09937 l 0,23.32532 c 0,28.6147 -0.0982,29.2304 -4.87236,30.55651 -3.89861,1.08291 -48.86242,1.42184 -53.93871,0.40659 -1.68359,-0.33672 -3.38782,-1.34922 -3.78717,-2.25 C 284.0024,546.237 283.47396,534.1375 283.22744,520.25 L 282.77922,495 200,495 l -82.77922,0 -0.44822,25.25 c -0.24652,13.8875 -0.77496,25.987 -1.17432,26.88779 -0.39935,0.90078 -2.10358,1.91328 -3.78717,2.25 -4.1368,0.82736 -51.677085,0.5896 -54.774595,-0.27394 z M 106,507 l 0,-32 -21,0 -21,0 0,31.33333 c 0,17.23334 0.3,31.63334 0.666667,32 0.366666,0.36667 9.816666,0.66667 21,0.66667 L 106,539 Z m 229.76405,-0.25 0.26404,-31.75 -21.01404,0 -21.01405,0 0,32.02029 0,32.02029 20.75,-0.27029 L 335.5,538.5 Z M 53,476.5 c 0,-12.06181 -1.569134,-11.50302 32.25,-11.48469 15.5375,0.008 28.85872,0.40105 29.60271,0.8725 0.8884,0.56296 1.53745,3.81847 1.89095,9.48468 L 117.28191,484 200,484 l 82.71809,0 0.53825,-8.62751 c 0.3535,-5.66621 1.00255,-8.92172 1.89095,-9.48468 0.74399,-0.47145 14.06521,-0.86408 29.60271,-0.8725 C 348.56913,464.99698 347,464.43819 347,476.5 l 0,7.5 20.5,0 20.5,0 0,-42.5 0,-42.5 -188,0 -188,0 0,42.5 0,42.5 20.5,0 20.5,0 z M 97,344 l 0,-43 -42.5,0 -42.5,0 0,43 0,43 42.5,0 42.5,0 z m 97.76074,0.25 L 194.5,301.5 151.25,301.23938 108,300.97875 l 0,43.01063 0,43.01062 43.51074,0 43.51073,0 z M 292,343.98938 l 0,-43.01063 -43.25,0.26063 -43.25,0.26062 -0.26074,42.75 -0.26073,42.75 43.51073,0 L 292,387 Z m 96,0.0106 0,-43 -42.5,0 -42.5,0 0,43 0,43 42.5,0 42.5,0 z M 97,247.5 97,204 l -42.5,0 -42.5,0 0,43.5 0,43.5 42.5,0 42.5,0 z m 97.76062,-0.25 0.26063,-43.25 -43.51063,0 -43.51062,0 0,39.875 c 0,21.93125 -0.23522,41.45884 0.61904,42.97018 l 0.61903,3.09517 12.13097,0.32065 c 6.67203,0.17636 25.89337,1.39976 42.63096,0.27982 l 30.5,-0.0408 0.26062,-43.25 z m 96.23161,42.03563 c 0.27073,-0.24022 0.65866,-19.52776 0.86206,-42.8612 L 292.22411,204 248.61205,204 205,204 l 0,42.83333 c 0,23.55834 0.29247,43.1258 0.64992,43.48326 0.7031,0.70309 84.52929,-0.30955 85.34231,-1.03096 z M 388,247.5 l 0,-43.5 -42.5,0 -42.5,0 0,43.5 0,43.5 42.5,0 42.5,0 z M 97,150 l 0,-43 -42.5,0 -42.5,0 0,43 0,43 42.5,0 42.5,0 z m 98,0 0,-43 -42.84918,0 -42.84917,0 -0.64565,9.75 c -0.35511,5.3625 -0.6478,24.7125 -0.65083,43 L 108,193 l 43.5,0 43.5,0 z m 97,10.65556 c 0,-17.78944 -0.29339,-37.13944 -0.65197,-43 L 290.69607,107 247.84803,107 205,107 l 0,43 0,43 43.5,0 43.5,0 z M 388,150 l 0,-43 -42.5,0 -42.5,0 0,43 0,43 42.5,0 42.5,0 z" style="fill:#000000" sodipodi:nodetypes="ssscssssssssscssssscccssssccccscscccccccccccscsscccsssscccccccccccscccccccccccccccccccccccccccccccccccccccccccccccccsscsscccsscccscsccccccccccccccccccccccssccccsscccccccsccccccccc"></path>
  </g>
</svg>
